<?xml version="1.0" standalone="no"?>
<!DOCTYPE svg PUBLIC "-//W3C//DTD SVG 20010904//EN"
 "http://www.w3.org/TR/2001/REC-SVG-20010904/DTD/svg10.dtd">
<svg version="1.0" xmlns="http://www.w3.org/2000/svg"
 width="788.000000pt" height="788.000000pt" viewBox="0 0 788.000000 788.000000"
 preserveAspectRatio="xMidYMid meet">
<metadata>
Created by potrace 1.14, written by Peter Selinger 2001-2017
</metadata>
<g transform="translate(0.000000,788.000000) scale(0.100000,-0.100000)"
fill="#000000" stroke="none">
<path d="M2306 6889 c-16 -4 -40 -18 -53 -31 -49 -46 -55 -74 -57 -270 l-1
-183 -240 -1 c-132 -1 -251 -4 -264 -8 -158 -38 -270 -140 -330 -299 -11 -32
-19 -63 -16 -68 4 -5 2 -9 -4 -9 -10 0 -12 -454 -12 -2630 -1 -1435 1 -1535
22 -1577 11 -21 17 -44 14 -53 -4 -8 -3 -11 1 -7 4 3 16 -13 27 -36 12 -23 26
-45 31 -49 6 -4 8 -8 4 -8 -4 0 15 -21 42 -47 27 -26 46 -51 43 -56 -3 -6 -1
-7 5 -3 12 7 84 -32 77 -44 -2 -4 7 -5 21 -2 15 3 29 0 33 -6 4 -6 22 -12 40
-14 18 -1 35 -6 38 -11 2 -4 11 -3 19 4 11 9 14 9 14 0 0 -7 5 -9 12 -5 16 10
108 11 114 2 3 -5 10 -8 15 -8 6 0 8 3 6 8 -3 4 25 6 61 5 81 -1 77 0 63 -16
-8 -10 -7 -14 4 -14 7 0 14 3 13 6 -3 26 3 33 17 21 12 -10 15 -10 15 1 0 12
2 12 9 0 5 -7 11 -9 14 -4 7 10 67 10 85 -1 7 -4 12 -3 12 2 0 10 36 9 46 -1
10 -9 26 -9 21 1 -3 4 24 7 59 7 35 0 64 -4 64 -8 0 -5 6 -5 12 -1 19 12 48
12 48 1 0 -6 5 -6 13 -1 15 11 67 11 85 1 7 -5 12 -3 12 3 0 6 5 8 10 5 6 -4
8 -12 4 -18 -3 -7 2 -3 10 7 9 11 16 14 16 7 0 -7 5 -9 12 -5 17 11 139 11
145 0 3 -4 9 -2 14 5 7 12 9 12 9 0 0 -9 4 -10 13 -5 10 8 43 10 81 5 5 0 3
-7 -3 -14 -8 -10 -7 -14 4 -14 7 0 14 3 13 6 -3 26 3 33 17 21 11 -9 15 -9 15
-1 0 7 5 9 10 6 6 -4 8 -12 4 -18 -3 -7 1 -4 9 6 10 12 17 14 22 8 3 -6 11
-11 16 -11 6 0 8 3 6 7 -3 5 10 8 29 8 19 0 34 -4 34 -9 0 -5 7 -3 15 4 11 9
15 9 15 1 0 -7 5 -9 12 -5 17 11 138 11 138 1 0 -5 5 -5 12 -1 17 11 109 11
115 1 3 -5 9 -3 14 4 7 12 9 12 9 0 0 -10 3 -11 14 -2 11 9 16 9 21 0 6 -8 10
-7 16 2 7 12 9 12 9 0 0 -9 4 -10 13 -5 20 15 82 10 79 -7 -1 -9 3 -7 13 5 8
11 15 14 15 7 0 -7 5 -9 12 -5 17 11 139 11 145 0 3 -4 9 -2 14 5 7 11 9 11 9
1 0 -8 5 -10 12 -6 15 9 231 10 246 1 6 -4 13 -3 17 3 4 7 12 7 26 0 13 -8 19
-7 19 0 0 6 5 8 10 5 6 -4 7 -12 3 -18 -3 -7 3 -3 15 7 13 11 22 14 22 7 0 -8
6 -9 18 -4 21 10 173 10 189 0 6 -4 14 -3 18 3 4 7 12 7 26 0 13 -8 19 -7 19
0 0 6 5 8 10 5 6 -4 7 -12 3 -18 -3 -7 3 -3 15 7 13 11 22 14 22 7 0 -8 6 -9
18 -4 20 10 64 9 81 -1 6 -4 11 -2 11 5 0 7 7 4 16 -7 8 -10 13 -14 10 -8 -8
15 17 25 35 14 8 -6 16 -4 21 3 6 9 8 9 8 0 0 -7 5 -13 11 -13 5 0 8 4 5 8 -2
4 9 7 25 7 22 0 33 -8 44 -29 8 -15 12 -32 9 -37 -3 -5 2 -6 10 -3 8 3 17 -2
20 -14 4 -10 28 -42 55 -70 26 -29 45 -52 42 -52 -3 0 2 -5 11 -11 9 -5 16
-15 14 -22 -1 -6 -1 -9 1 -4 3 4 9 7 14 7 6 0 7 -4 4 -10 -3 -5 0 -10 8 -10
19 0 59 -44 50 -55 -5 -4 -2 -5 6 0 9 5 19 1 28 -11 8 -10 17 -18 21 -18 18 3
52 -21 48 -33 -3 -8 -1 -11 4 -8 19 12 52 -6 45 -23 -5 -13 -3 -14 6 -5 14 14
62 -4 52 -20 -3 -6 -1 -7 6 -3 6 4 23 0 38 -9 14 -9 22 -12 18 -5 -4 7 5 5 24
-4 17 -9 34 -16 38 -15 18 3 34 -2 30 -8 -3 -5 12 -7 34 -7 21 1 39 -1 39 -5
0 -5 63 -8 140 -8 77 0 140 3 140 6 0 4 12 8 28 9 29 3 65 9 70 12 1 2 6 3 11
4 5 0 13 4 17 9 4 4 13 7 19 7 7 0 29 7 49 15 20 8 38 15 41 15 3 0 19 9 37
20 18 10 52 29 75 41 23 12 62 39 85 60 24 21 49 36 56 34 7 -3 11 -1 8 4 -8
13 74 92 87 84 6 -4 7 -1 3 6 -5 7 -1 20 8 29 24 25 96 124 96 133 0 4 6 14
13 21 6 7 21 32 32 55 11 24 23 43 27 43 4 0 5 7 2 15 -4 8 -1 15 5 15 6 0 10
3 9 8 -4 14 14 52 22 47 5 -3 12 0 16 6 4 8 3 9 -4 5 -16 -10 -16 26 0 42 7 7
9 12 5 12 -4 0 -1 13 8 30 8 16 15 32 15 35 -1 37 1 45 13 39 9 -6 9 -4 1 7
-8 10 -9 21 -1 39 5 14 9 38 8 54 -2 16 3 33 11 37 7 5 8 9 2 9 -7 0 -9 15 -5
42 8 52 6 150 -4 238 -4 36 -9 74 -10 85 -2 23 -14 73 -22 95 -3 8 -8 24 -10
35 -7 31 -9 38 -21 68 -7 16 -12 30 -12 31 0 2 -10 25 -22 52 -12 27 -22 51
-23 54 -1 10 -80 137 -116 186 -59 80 -165 180 -253 238 -112 74 -197 111
-335 146 -33 9 -41 14 -30 21 10 6 10 9 2 9 -14 0 -13 26 1 49 6 9 5 12 -1 8
-6 -4 -10 6 -11 23 0 17 4 30 9 30 5 0 9 5 9 11 0 5 -4 7 -10 4 -12 -7 -8 64
4 84 6 9 5 12 -1 8 -6 -4 -10 14 -9 48 1 30 5 55 11 55 6 0 6 3 0 8 -14 9 -14
205 0 214 7 5 7 8 -1 8 -13 0 -13 118 0 139 6 9 5 12 -1 8 -13 -8 -12 132 1
152 6 9 5 12 -1 8 -6 -4 -10 14 -9 48 1 30 5 55 11 55 6 0 6 3 0 8 -14 9 -14
205 0 214 7 5 7 8 -1 8 -13 0 -13 118 0 139 6 9 5 12 -1 8 -6 -4 -10 6 -11 23
0 17 4 30 9 30 5 0 9 5 9 11 0 5 -4 7 -10 4 -12 -7 -8 64 4 84 6 9 5 12 -1 8
-6 -4 -9 21 -9 63 0 40 4 66 10 63 5 -4 6 -1 1 7 -11 18 -14 69 -4 76 5 3 6
11 2 17 -11 16 -11 127 -1 127 5 0 5 8 1 18 -10 21 -10 43 0 59 4 6 3 15 -3
18 -8 5 -7 12 2 23 7 9 8 13 2 9 -13 -8 -13 131 0 152 6 9 5 12 0 8 -12 -7
-13 318 -2 329 4 4 3 14 -4 21 -9 11 -9 17 3 24 10 6 10 9 2 9 -7 0 -13 7 -13
16 0 9 5 12 12 8 7 -5 8 -3 2 7 -13 21 -13 79 0 79 7 0 6 3 -2 9 -7 4 -12 12
-11 17 7 26 -18 118 -49 184 -41 87 -119 174 -190 213 -82 44 -146 53 -392 51
-124 -1 -228 -2 -231 -3 -3 0 -6 -56 -7 -123 -1 -68 -2 -130 -2 -138 0 -8 1
-31 3 -50 2 -23 -3 -39 -13 -48 -13 -11 -13 -11 0 -7 13 4 15 -5 15 -52 0 -32
-4 -61 -10 -65 -7 -5 -6 -8 1 -8 9 0 11 -31 4 -50 -1 -3 -2 -8 -1 -12 0 -5 -3
-8 -9 -8 -5 0 -10 -6 -10 -13 0 -34 -75 -79 -130 -79 -51 1 -113 58 -125 117
-12 58 -13 85 -1 85 7 0 7 3 1 8 -11 8 -14 142 -3 142 4 0 3 13 -2 29 -5 19
-4 33 3 40 7 7 7 11 1 11 -9 0 -11 32 -4 50 1 3 1 10 0 15 -6 30 -5 95 1 95 4
0 4 14 -1 30 -6 21 -5 30 3 30 8 0 8 3 2 8 -11 8 -13 37 -3 47 4 4 3 17 -2 30
-5 14 -5 26 3 34 7 7 7 11 0 11 -11 0 -12 54 -1 66 4 3 3 14 -1 23 -12 21 -11
33 1 49 6 6 7 12 2 12 -5 0 -10 25 -11 54 -3 103 -80 176 -164 157 -50 -11
-75 -30 -100 -75 -22 -38 -23 -54 -25 -221 -1 -99 -2 -182 -3 -185 0 -3 -323
-5 -717 -5 -424 0 -718 -4 -721 -9 -4 -5 -7 -127 -7 -270 -1 -254 -2 -262 -25
-302 -51 -90 -168 -99 -227 -17 -33 46 -35 59 -34 258 1 104 1 217 1 250 0 33
-1 148 -1 255 -1 176 -3 199 -22 239 -32 66 -97 99 -162 80z m-596 -1971 c0
-9 3 -9 9 1 8 12 14 13 36 3 15 -7 24 -8 20 -2 -9 14 18 12 34 -2 11 -11 12
-10 6 2 -8 13 -7 13 10 0 11 -9 16 -10 11 -2 -4 6 -3 12 3 12 5 0 13 -5 16
-10 5 -8 12 -7 22 1 9 8 17 9 21 3 9 -12 44 -15 36 -3 -8 14 20 11 35 -3 11
-11 12 -10 6 2 -8 13 -7 13 10 0 11 -9 16 -10 11 -2 -4 6 -3 12 3 12 5 0 13
-5 16 -10 5 -8 12 -7 22 1 11 10 16 10 23 0 6 -10 9 -10 15 -1 6 9 10 9 16 -1
5 -8 9 -9 9 -4 0 13 109 13 129 1 10 -6 12 -6 7 2 -4 7 -1 12 9 12 12 0 15 -5
11 -17 -5 -16 -4 -16 7 -3 14 17 42 26 32 10 -3 -5 -2 -10 4 -10 5 0 11 6 14
13 3 9 7 9 19 -1 12 -10 18 -10 23 -1 6 8 10 7 16 -2 7 -11 9 -11 9 -1 0 10 5
10 21 1 15 -8 19 -8 15 0 -10 15 17 14 33 -1 11 -11 12 -10 6 2 -8 13 -7 13
10 0 11 -9 16 -10 11 -2 -4 6 -3 12 3 12 5 0 13 -5 16 -10 5 -8 12 -7 23 2 12
10 16 10 19 1 3 -9 10 -10 24 -3 14 8 19 7 19 -2 0 -9 3 -9 8 -2 9 14 73 14
65 0 -3 -6 0 -5 8 2 16 15 33 16 23 0 -5 -7 -3 -8 7 -3 20 13 49 13 49 1 0 -8
3 -8 8 -1 4 6 18 12 30 12 18 2 22 -2 18 -15 -5 -15 -5 -15 6 -1 14 16 64 19
87 4 10 -5 12 -4 7 3 -10 16 16 15 33 0 11 -11 12 -10 6 2 -8 13 -7 13 10 0
11 -9 16 -10 11 -2 -4 6 -3 12 3 12 5 0 13 -5 16 -10 5 -8 12 -7 22 1 11 10
16 10 23 0 6 -10 9 -10 15 -1 6 9 10 9 16 -1 5 -8 9 -9 9 -4 0 13 109 13 129
1 10 -6 12 -6 7 2 -4 7 -1 12 9 12 10 0 13 -5 9 -12 -5 -8 -3 -8 7 -2 20 12
63 12 71 0 5 -8 8 -7 8 0 0 13 50 12 70 -1 9 -5 11 -4 6 3 -10 16 16 15 33 0
11 -11 12 -10 6 2 -8 13 -7 13 10 0 11 -9 16 -10 11 -2 -4 6 -3 12 3 12 5 0
13 -5 16 -10 5 -8 12 -7 23 2 12 10 16 10 19 1 3 -9 10 -10 24 -3 14 8 19 7
19 -2 0 -9 3 -9 8 -2 9 14 73 14 65 0 -3 -6 0 -5 8 2 16 15 33 16 23 0 -5 -7
-3 -8 7 -3 20 13 49 13 49 1 0 -8 2 -8 8 0 4 6 22 11 40 11 25 -1 32 -4 27
-16 -3 -11 0 -9 10 3 11 15 15 16 16 5 0 -10 2 -10 6 -1 2 6 9 12 14 12 6 0 7
-6 3 -12 -5 -9 -2 -9 9 1 14 11 17 11 17 0 0 -9 3 -10 8 -4 9 13 112 13 131 1
10 -6 12 -6 7 2 -4 7 -1 12 9 12 10 0 13 -5 9 -12 -5 -7 -3 -8 7 -2 21 13 69
13 69 0 0 -7 3 -8 8 -1 9 14 65 14 74 0 5 -7 8 -7 8 0 0 12 114 14 126 3 4 -5
12 -8 18 -8 6 0 5 4 -3 9 -9 6 5 8 38 8 28 -1 51 -6 51 -12 0 -6 3 -6 8 0 9
14 75 13 84 0 5 -6 8 -6 8 1 0 7 15 11 34 11 21 -1 32 -5 29 -12 -3 -5 0 -4 8
3 16 15 33 16 23 0 -5 -7 -3 -8 7 -3 20 13 49 13 49 1 0 -8 3 -8 8 0 8 13 120
13 141 0 10 -6 12 -5 7 2 -10 16 16 15 33 0 11 -11 12 -10 6 2 -8 13 -7 13 10
0 11 -9 16 -10 11 -2 -4 6 -3 12 3 12 5 0 13 -5 16 -10 5 -8 12 -7 22 1 11 10
16 10 23 0 6 -10 9 -10 15 -1 6 9 10 9 16 -1 5 -8 9 -9 9 -4 0 13 109 13 129
1 10 -6 12 -6 7 2 -4 7 -1 12 9 12 12 0 15 -5 11 -17 -5 -15 -4 -15 9 1 11 15
15 16 16 5 0 -10 2 -10 6 -1 2 6 9 12 14 12 6 0 8 -4 5 -8 -3 -5 1 -9 9 -9 8
0 11 5 8 11 -4 6 0 5 9 -1 8 -7 18 -10 22 -6 13 13 58 14 74 1 12 -10 14 -10
8 0 -4 7 -1 12 9 12 10 0 14 -5 9 -12 -6 -10 -4 -10 7 0 7 6 18 12 25 12 17 0
24 -36 10 -51 -6 -6 -6 -9 -1 -6 10 5 13 -84 5 -118 -1 -5 -1 -12 0 -15 8 -20
7 -69 -2 -64 -6 4 -6 -1 1 -14 14 -26 14 -35 0 -26 -8 5 -8 1 0 -14 14 -27 14
-35 -1 -26 -7 5 -8 3 -3 -7 13 -20 12 -349 0 -349 -7 0 -7 -3 0 -8 6 -4 10
-69 10 -157 0 -88 -4 -153 -10 -157 -7 -5 -7 -8 0 -8 13 0 13 -635 -1 -636
-71 -4 -246 -74 -349 -139 -89 -56 -196 -159 -276 -265 -52 -69 -137 -233
-164 -315 -9 -27 -19 -57 -22 -65 -3 -8 -7 -22 -8 -30 -1 -8 -7 -35 -13 -60
-12 -50 -26 -155 -24 -182 0 -10 -5 -18 -11 -18 -8 0 -8 -3 -2 -8 6 -4 11 -36
12 -72 2 -115 17 -232 34 -277 5 -14 9 -26 9 -28 0 -3 -635 -4 -1410 -4 -1565
0 -1452 -5 -1499 66 -13 20 -25 55 -28 77 -7 65 -7 196 0 202 4 4 4 11 0 17
-7 12 -10 87 -3 87 10 0 5 65 -5 72 -6 5 -5 8 3 8 10 0 10 5 2 20 -6 11 -7 20
-3 20 6 0 8 215 3 250 -4 26 0 192 5 200 3 5 1 10 -5 10 -7 0 -8 6 -1 18 12
22 12 34 -1 50 -7 8 -7 12 0 12 6 0 7 13 2 35 -4 20 -4 38 1 41 5 3 6 10 2 17
-7 11 -7 67 0 102 3 11 0 26 -6 33 -6 8 -6 12 1 12 6 0 9 6 6 14 -8 20 -10
166 -3 166 3 0 2 25 -1 55 -3 30 -3 61 1 67 4 7 3 20 -2 29 -6 12 -5 20 1 24
6 4 7 11 4 17 -9 14 -11 88 -3 88 4 0 3 15 -1 34 -4 19 -4 40 1 47 4 7 3 21
-2 30 -6 12 -5 20 1 24 6 4 7 11 4 17 -8 13 -11 88 -4 88 10 0 5 65 -5 72 -6
5 -5 8 3 8 10 0 10 5 2 20 -6 11 -7 20 -3 20 8 0 7 95 -1 117 -3 7 -1 15 5 18
5 4 6 11 2 18 -7 11 -7 67 0 102 3 11 0 26 -6 33 -6 8 -6 12 1 12 6 0 7 13 2
35 -4 19 -4 37 0 40 4 3 4 21 0 40 -4 20 -4 38 1 41 5 3 6 10 2 17 -7 11 -7
67 0 102 3 11 0 26 -6 33 -6 8 -6 12 1 12 7 0 8 10 2 30 -5 17 -6 30 -2 30 9
0 7 68 -2 77 -3 3 1 17 10 31 9 13 11 22 6 18 -6 -3 -13 -2 -17 4 -3 5 -1 10
5 10 8 0 8 5 1 18 -7 13 -4 24 17 47 15 16 18 22 6 12 -24 -20 -40 -11 -21 11
9 12 9 16 -1 19 -24 9 -2 20 43 21 30 2 45 -2 45 -10z m3806 -1982 c1 -10 5
-21 9 -24 3 -4 4 5 2 19 -5 25 -4 26 41 23 125 -8 161 -21 145 -48 -3 -5 -1
-6 6 -2 6 4 9 12 6 17 -9 13 -2 12 64 -17 34 -15 61 -31 61 -36 0 -5 4 -7 9
-4 5 3 20 -5 35 -19 15 -13 29 -24 32 -24 11 2 113 -99 107 -105 -4 -3 1 -6
10 -6 15 0 22 -11 18 -32 0 -5 5 -8 13 -8 20 0 29 -30 14 -49 -10 -13 -10 -14
2 -3 16 14 34 16 25 3 -3 -5 0 -13 6 -16 5 -4 8 -13 5 -21 -3 -8 0 -11 10 -7
14 5 19 -10 16 -52 -2 -16 0 -17 8 -5 5 8 10 12 11 8 1 -5 3 -11 4 -15 13 -36
16 -49 15 -57 -1 -5 3 -12 8 -15 6 -3 12 -19 13 -36 2 -16 6 -32 9 -35 14 -12
26 -110 16 -121 -8 -9 -8 -10 2 -5 9 5 12 -7 13 -46 2 -108 -3 -163 -14 -170
-9 -6 -9 -8 0 -8 8 0 8 -14 -2 -55 -7 -30 -10 -55 -8 -55 2 0 1 -6 -4 -12 -4
-7 -8 -17 -10 -23 -6 -26 -36 -102 -59 -148 -110 -219 -311 -368 -544 -403
-57 -8 -52 -8 -138 0 -167 16 -294 78 -423 206 -78 77 -182 241 -172 272 2 5
-1 8 -6 8 -5 0 -13 15 -17 33 -4 17 -9 35 -10 40 -1 4 -2 8 -4 10 -2 2 -3 8
-14 62 -19 87 -24 224 -12 295 4 19 8 50 11 68 2 19 10 41 17 50 11 13 11 14
-2 7 -13 -7 -13 -6 -2 7 7 9 11 22 10 29 -2 8 2 13 8 12 7 -1 10 5 8 15 -3 9
4 35 16 57 11 21 20 45 20 51 0 7 5 14 11 16 5 2 11 10 12 18 4 24 81 129 95
130 8 0 10 5 6 12 -5 7 -2 9 9 5 11 -4 14 -2 11 7 -8 21 14 30 34 14 16 -12
16 -11 2 6 -13 16 -12 20 5 32 11 8 30 23 41 33 17 15 25 16 34 8 6 -7 11 -7
10 -2 -5 23 1 33 23 40 12 4 25 7 30 6 4 -1 7 4 7 10 0 5 5 7 10 4 6 -3 10 -2
10 3 0 5 19 16 43 25 40 16 60 20 137 33 19 3 37 8 39 10 10 10 45 -5 47 -20z"/>
<path d="M5279 4918 c-5 -18 -6 -38 -1 -34 7 8 12 36 6 36 -2 0 -4 -1 -5 -2z"/>
<path d="M2186 4902 c-3 -5 1 -9 9 -9 8 0 15 4 15 9 0 4 -4 8 -9 8 -6 0 -12
-4 -15 -8z"/>
<path d="M2830 4902 c0 -5 7 -9 15 -9 8 0 12 4 9 9 -3 4 -9 8 -15 8 -5 0 -9
-4 -9 -8z"/>
<path d="M3146 4902 c-3 -5 1 -9 9 -9 8 0 15 4 15 9 0 4 -4 8 -9 8 -6 0 -12
-4 -15 -8z"/>
<path d="M3946 4902 c-3 -5 1 -9 9 -9 8 0 15 4 15 9 0 4 -4 8 -9 8 -6 0 -12
-4 -15 -8z"/>
<path d="M4266 4902 c-3 -5 1 -9 9 -9 8 0 15 4 15 9 0 4 -4 8 -9 8 -6 0 -12
-4 -15 -8z"/>
<path d="M5066 4902 c-3 -5 1 -9 9 -9 8 0 15 4 15 9 0 4 -4 8 -9 8 -6 0 -12
-4 -15 -8z"/>
<path d="M1775 4889 c-4 -6 -5 -12 -2 -15 2 -3 7 2 10 11 7 17 1 20 -8 4z"/>
<path d="M1896 4887 c3 -10 9 -15 12 -12 3 3 0 11 -7 18 -10 9 -11 8 -5 -6z"/>
<path d="M1935 4889 c-4 -6 -5 -12 -2 -15 2 -3 7 2 10 11 7 17 1 20 -8 4z"/>
<path d="M2056 4887 c3 -10 9 -15 12 -12 3 3 0 11 -7 18 -10 9 -11 8 -5 -6z"/>
<path d="M2415 4889 c-4 -6 -5 -12 -2 -15 2 -3 7 2 10 11 7 17 1 20 -8 4z"/>
<path d="M2536 4887 c3 -10 9 -15 12 -12 3 3 0 11 -7 18 -10 9 -11 8 -5 -6z"/>
<path d="M2895 4889 c-4 -6 -5 -12 -2 -15 2 -3 7 2 10 11 7 17 1 20 -8 4z"/>
<path d="M3016 4887 c3 -10 9 -15 12 -12 3 3 0 11 -7 18 -10 9 -11 8 -5 -6z"/>
<path d="M3375 4889 c-4 -6 -5 -12 -2 -15 2 -3 7 2 10 11 7 17 1 20 -8 4z"/>
<path d="M3496 4887 c3 -10 9 -15 12 -12 3 3 0 11 -7 18 -10 9 -11 8 -5 -6z"/>
<path d="M4815 4889 c-4 -6 -5 -12 -2 -15 2 -3 7 2 10 11 7 17 1 20 -8 4z"/>
<path d="M4936 4887 c3 -10 9 -15 12 -12 3 3 0 11 -7 18 -10 9 -11 8 -5 -6z"/>
<path d="M3780 4885 c0 -2 6 -8 13 -14 10 -8 14 -7 14 2 0 8 -6 14 -14 14 -7
0 -13 -1 -13 -2z"/>
<path d="M5140 4885 c0 -2 6 -8 13 -14 10 -8 14 -7 14 2 0 8 -6 14 -14 14 -7
0 -13 -1 -13 -2z"/>
<path d="M5206 4878 c3 -5 10 -6 15 -3 13 9 11 12 -6 12 -8 0 -12 -4 -9 -9z"/>
<path d="M2587 4859 c7 -7 15 -10 18 -7 3 3 -2 9 -12 12 -14 6 -15 5 -6 -5z"/>
<path d="M2635 4861 c-3 -5 -2 -12 3 -15 5 -3 9 1 9 9 0 17 -3 19 -12 6z"/>
<path d="M2747 4859 c7 -7 15 -10 18 -7 3 3 -2 9 -12 12 -14 6 -15 5 -6 -5z"/>
<path d="M3547 4859 c7 -7 15 -10 18 -7 3 3 -2 9 -12 12 -14 6 -15 5 -6 -5z"/>
<path d="M3595 4861 c-3 -5 -2 -12 3 -15 5 -3 9 1 9 9 0 17 -3 19 -12 6z"/>
<path d="M3707 4859 c7 -7 15 -10 18 -7 3 3 -2 9 -12 12 -14 6 -15 5 -6 -5z"/>
<path d="M4473 4855 c0 -8 4 -12 9 -9 5 3 6 10 3 15 -9 13 -12 11 -12 -6z"/>
<path d="M4507 4859 c7 -7 15 -10 18 -7 3 3 -2 9 -12 12 -14 6 -15 5 -6 -5z"/>
<path d="M4555 4861 c-3 -5 -2 -12 3 -15 5 -3 9 1 9 9 0 17 -3 19 -12 6z"/>
<path d="M4667 4859 c7 -7 15 -10 18 -7 3 3 -2 9 -12 12 -14 6 -15 5 -6 -5z"/>
<path d="M2554 4849 c-3 -6 0 -18 9 -26 10 -10 17 -12 22 -4 4 7 1 10 -7 9 -7
-2 -12 5 -12 15 2 20 -2 22 -12 6z"/>
<path d="M1655 4840 c3 -5 8 -10 11 -10 2 0 4 5 4 10 0 6 -5 10 -11 10 -5 0
-7 -4 -4 -10z"/>
<path d="M2066 4842 c-3 -5 1 -9 9 -9 8 0 12 4 9 9 -3 4 -7 8 -9 8 -2 0 -6 -4
-9 -8z"/>
<path d="M2179 4848 c-5 -18 -6 -38 -1 -34 7 8 12 36 6 36 -2 0 -4 -1 -5 -2z"/>
<path d="M2460 4846 c0 -2 8 -10 18 -17 15 -13 16 -12 3 4 -13 16 -21 21 -21
13z"/>
<path d="M2661 4836 c-9 -11 -9 -16 1 -22 7 -4 10 -4 6 1 -4 4 -3 14 3 22 6 7
9 13 6 13 -2 0 -10 -6 -16 -14z"/>
<path d="M3139 4848 c-5 -18 -6 -38 -1 -34 7 8 12 36 6 36 -2 0 -4 -1 -5 -2z"/>
<path d="M3356 4838 c3 -5 10 -6 15 -3 13 9 11 12 -6 12 -8 0 -12 -4 -9 -9z"/>
<path d="M3621 4836 c-9 -11 -9 -16 1 -22 7 -4 10 -4 6 1 -4 4 -3 14 3 22 6 7
9 13 6 13 -2 0 -10 -6 -16 -14z"/>
<path d="M4106 4838 c3 -5 10 -6 15 -3 13 9 11 12 -6 12 -8 0 -12 -4 -9 -9z"/>
<path d="M4426 4838 c3 -5 10 -6 15 -3 13 9 11 12 -6 12 -8 0 -12 -4 -9 -9z"/>
<path d="M4581 4836 c-9 -11 -9 -16 1 -22 7 -4 10 -4 6 1 -4 4 -3 14 3 22 6 7
9 13 6 13 -2 0 -10 -6 -16 -14z"/>
<path d="M5059 4848 c-5 -18 -6 -38 -1 -34 7 8 12 36 6 36 -2 0 -4 -1 -5 -2z"/>
<path d="M4695 4831 c-3 -5 -2 -12 3 -15 5 -3 9 1 9 9 0 17 -3 19 -12 6z"/>
<path d="M1815 4820 c-3 -5 -1 -10 4 -10 6 0 11 5 11 10 0 6 -2 10 -4 10 -3 0
-8 -4 -11 -10z"/>
<path d="M1855 4820 c-3 -5 -1 -10 4 -10 6 0 11 5 11 10 0 6 -2 10 -4 10 -3 0
-8 -4 -11 -10z"/>
<path d="M1970 4820 c0 -5 5 -10 11 -10 5 0 7 5 4 10 -3 6 -8 10 -11 10 -2 0
-4 -4 -4 -10z"/>
<path d="M2010 4820 c0 -5 5 -10 11 -10 5 0 7 5 4 10 -3 6 -8 10 -11 10 -2 0
-4 -4 -4 -10z"/>
<path d="M2206 4822 c-3 -5 1 -9 9 -9 8 0 12 4 9 9 -3 4 -7 8 -9 8 -2 0 -6 -4
-9 -8z"/>
<path d="M2310 4825 c0 -7 30 -13 34 -7 3 4 -4 9 -15 9 -10 1 -19 0 -19 -2z"/>
<path d="M2376 4822 c-3 -4 4 -9 15 -9 23 -2 25 3 4 10 -8 4 -16 3 -19 -1z"/>
<path d="M2615 4820 c3 -5 8 -10 11 -10 2 0 4 5 4 10 0 6 -5 10 -11 10 -5 0
-7 -4 -4 -10z"/>
<path d="M2735 4820 c3 -5 8 -10 11 -10 2 0 4 5 4 10 0 6 -5 10 -11 10 -5 0
-7 -4 -4 -10z"/>
<path d="M3216 4818 c3 -4 11 -5 19 -1 21 7 19 12 -4 10 -11 0 -18 -5 -15 -9z"/>
<path d="M3490 4820 c0 -5 5 -10 11 -10 5 0 7 5 4 10 -3 6 -8 10 -11 10 -2 0
-4 -4 -4 -10z"/>
<path d="M3526 4818 c3 -5 10 -6 15 -3 13 9 11 12 -6 12 -8 0 -12 -4 -9 -9z"/>
<path d="M3575 4820 c3 -5 8 -10 11 -10 2 0 4 5 4 10 0 6 -5 10 -11 10 -5 0
-7 -4 -4 -10z"/>
<path d="M3750 4825 c0 -7 30 -13 34 -7 3 4 -4 9 -15 9 -10 1 -19 0 -19 -2z"/>
<path d="M3810 4826 c0 -2 7 -7 16 -10 8 -3 12 -2 9 4 -6 10 -25 14 -25 6z"/>
<path d="M3870 4825 c0 -7 30 -13 34 -7 3 4 -4 9 -15 9 -10 1 -19 0 -19 -2z"/>
<path d="M4030 4825 c0 -7 30 -13 34 -7 3 4 -4 9 -15 9 -10 1 -19 0 -19 -2z"/>
<path d="M4190 4825 c0 -7 30 -13 34 -7 3 4 -4 9 -15 9 -10 1 -19 0 -19 -2z"/>
<path d="M4350 4825 c0 -7 30 -13 34 -7 3 4 -4 9 -15 9 -10 1 -19 0 -19 -2z"/>
<path d="M4486 4818 c3 -5 10 -6 15 -3 13 9 11 12 -6 12 -8 0 -12 -4 -9 -9z"/>
<path d="M4535 4820 c3 -5 8 -10 11 -10 2 0 4 5 4 10 0 6 -5 10 -11 10 -5 0
-7 -4 -4 -10z"/>
<path d="M4655 4820 c3 -5 8 -10 11 -10 2 0 4 5 4 10 0 6 -5 10 -11 10 -5 0
-7 -4 -4 -10z"/>
<path d="M4850 4820 c0 -5 5 -10 11 -10 5 0 7 5 4 10 -3 6 -8 10 -11 10 -2 0
-4 -4 -4 -10z"/>
<path d="M5210 4819 c0 -5 5 -7 10 -4 6 3 10 8 10 11 0 2 -4 4 -10 4 -5 0 -10
-5 -10 -11z"/>
<path d="M2787 4799 c7 -7 15 -10 18 -7 3 3 -2 9 -12 12 -14 6 -15 5 -6 -5z"/>
<path d="M2830 4799 c0 -5 5 -7 10 -4 6 3 10 8 10 11 0 2 -4 4 -10 4 -5 0 -10
-5 -10 -11z"/>
<path d="M3267 4799 c7 -7 15 -10 18 -7 3 3 -2 9 -12 12 -14 6 -15 5 -6 -5z"/>
<path d="M3310 4799 c0 -5 5 -7 10 -4 6 3 10 8 10 11 0 2 -4 4 -10 4 -5 0 -10
-5 -10 -11z"/>
<path d="M4145 4799 c-3 -4 2 -6 10 -5 21 3 28 13 10 13 -9 0 -18 -4 -20 -8z"/>
<path d="M1659 4788 c-5 -18 -6 -38 -1 -34 7 8 12 36 6 36 -2 0 -4 -1 -5 -2z"/>
<path d="M2167 4434 c-1 -2 -14 -5 -28 -7 -88 -16 -175 -101 -209 -202 -18
-53 -19 -60 -21 -130 -1 -33 -6 -66 -13 -74 -8 -11 -8 -13 0 -8 9 5 12 -28 11
-121 0 -71 3 -134 7 -140 3 -6 2 -14 -4 -17 -8 -5 -7 -11 1 -21 6 -8 8 -14 4
-14 -4 0 -3 -6 3 -12 5 -7 13 -28 17 -45 3 -18 11 -33 16 -33 6 0 8 -4 5 -9
-7 -10 77 -101 94 -101 7 0 10 -6 7 -14 -4 -10 0 -12 14 -9 11 3 19 0 19 -6 0
-7 5 -9 10 -6 6 4 16 2 23 -3 7 -6 43 -10 81 -11 44 0 73 -5 78 -13 6 -10 8
-10 8 0 0 8 10 13 23 12 12 -1 27 -1 32 0 25 5 91 -3 96 -12 4 -7 8 -6 10 1 3
7 30 12 66 14 34 1 59 6 56 11 -3 5 0 7 8 4 13 -4 21 0 54 30 8 7 21 10 27 6
7 -4 10 -4 6 0 -3 4 1 16 10 27 12 14 18 16 24 6 7 -9 8 -8 7 3 -3 27 1 36 24
60 12 14 21 26 20 27 -6 7 10 62 17 58 5 -3 6 4 3 15 -3 11 0 27 7 35 9 11 10
15 1 15 -8 0 -10 8 -5 23 4 12 7 31 6 42 -1 11 -3 101 -5 200 -3 172 -4 183
-31 238 -33 71 -92 132 -155 160 -41 18 -67 21 -234 22 -103 0 -189 0 -190 -1z
m96 -338 c-3 -6 0 -5 8 2 15 14 33 16 25 3 -7 -10 20 -9 30 2 12 12 26 8 18
-5 -5 -7 -3 -8 7 -2 18 11 120 13 113 2 -3 -4 2 -5 10 -2 19 7 21 -7 4 -25 -9
-10 -9 -12 -1 -7 15 8 14 -36 -2 -46 -6 -5 -6 -8 3 -8 6 0 12 -7 12 -15 0 -8
-6 -15 -12 -15 -9 0 -9 -3 -2 -8 6 -4 10 -45 10 -99 l0 -92 -145 2 c-113 2
-145 5 -143 15 2 14 3 18 2 120 -1 38 4 70 12 80 7 9 8 13 2 9 -7 -4 -14 2
-17 13 -3 11 0 20 5 20 7 0 6 5 -1 14 -8 9 -8 16 -2 20 6 4 8 13 5 20 -4 10 4
14 30 13 21 -1 32 -5 29 -11z"/>
<path d="M2226 4058 c3 -4 9 -8 15 -8 5 0 9 4 9 8 0 5 -7 9 -15 9 -8 0 -12 -4
-9 -9z"/>
<path d="M2310 4060 c0 -5 5 -10 11 -10 5 0 7 5 4 10 -3 6 -8 10 -11 10 -2 0
-4 -4 -4 -10z"/>
<path d="M2347 4059 c7 -7 15 -10 18 -7 3 3 -2 9 -12 12 -14 6 -15 5 -6 -5z"/>
<path d="M2290 4019 c0 -5 5 -7 10 -4 6 3 10 8 10 11 0 2 -4 4 -10 4 -5 0 -10
-5 -10 -11z"/>
<path d="M2394 4000 c0 -13 4 -16 10 -10 7 7 7 13 0 20 -6 6 -10 3 -10 -10z"/>
<path d="M2266 3982 c-3 -5 1 -9 9 -9 8 0 12 4 9 9 -3 4 -7 8 -9 8 -2 0 -6 -4
-9 -8z"/>
<path d="M2356 3953 c-6 -14 -5 -15 5 -6 7 7 10 15 7 18 -3 3 -9 -2 -12 -12z"/>
<path d="M3262 4413 c-89 -36 -155 -114 -182 -213 -7 -24 -12 -102 -13 -173 0
-70 -4 -130 -9 -133 -5 -3 -5 -11 -1 -17 4 -7 9 -48 11 -92 4 -103 4 -105 12
-105 4 0 7 -7 8 -15 1 -8 3 -22 4 -30 1 -8 5 -15 10 -15 4 0 8 -6 8 -13 0 -7
11 -24 24 -39 14 -14 22 -29 19 -32 -4 -3 1 -6 10 -6 9 0 20 -6 24 -13 12 -21
104 -65 133 -65 8 0 87 -1 175 -1 88 -1 176 1 195 5 19 3 41 6 48 6 6 1 12 5
12 10 0 4 3 7 8 6 4 -2 25 10 47 25 22 15 37 27 33 27 -3 0 7 14 23 31 16 17
29 37 29 45 0 8 4 14 9 14 19 0 33 80 35 202 0 48 5 84 10 80 5 -3 6 0 2 6
-12 20 -15 51 -6 57 5 3 5 18 0 34 -4 15 -4 34 0 42 5 7 7 16 4 20 -2 4 -6 36
-9 71 -9 122 -78 229 -181 278 -45 22 -60 24 -243 25 -179 1 -198 -1 -249 -22z
m168 -317 c0 -6 5 -4 10 4 8 12 10 12 10 1 0 -11 3 -11 15 -1 12 10 15 10 15
-1 0 -11 2 -11 10 1 9 13 11 13 20 0 5 -8 10 -10 10 -5 0 14 70 14 70 1 0 -6
5 -4 10 4 8 13 10 13 10 1 0 -12 3 -12 12 -3 18 18 23 15 26 -13 1 -14 -4 -25
-11 -25 -8 0 -9 -3 -1 -8 7 -4 11 -53 10 -137 l-1 -130 -146 -2 -146 -2 2 27
c1 17 7 26 16 24 10 -3 9 1 -3 15 -12 13 -14 23 -7 36 6 9 6 17 2 17 -5 0 -9
9 -9 20 0 11 4 20 9 20 6 0 6 5 0 13 -7 10 -9 92 -4 142 1 14 71 14 71 1z"/>
<path d="M3395 4081 c-3 -5 -2 -12 3 -15 5 -3 9 1 9 9 0 17 -3 19 -12 6z"/>
<path d="M3555 4081 c-3 -5 -2 -12 3 -15 5 -3 9 1 9 9 0 17 -3 19 -12 6z"/>
<path d="M3370 3980 c0 -5 5 -10 11 -10 5 0 7 5 4 10 -3 6 -8 10 -11 10 -2 0
-4 -4 -4 -10z"/>
<path d="M3576 3982 c-3 -5 1 -9 9 -9 8 0 12 4 9 9 -3 4 -7 8 -9 8 -2 0 -6 -4
-9 -8z"/>
<path d="M3390 3920 c0 -5 5 -10 11 -10 5 0 7 5 4 10 -3 6 -8 10 -11 10 -2 0
-4 -4 -4 -10z"/>
<path d="M4462 4428 c-104 -18 -199 -120 -227 -242 -15 -68 -13 -473 2 -502 9
-16 9 -24 0 -34 -9 -10 -9 -11 1 -6 7 5 16 -2 22 -19 5 -14 19 -35 30 -47 11
-12 20 -27 20 -33 0 -5 18 -21 40 -35 22 -14 40 -29 40 -34 0 -5 3 -7 6 -3 4
3 19 0 35 -8 15 -8 38 -14 51 -14 13 0 70 0 128 -1 58 -1 112 0 120 2 9 2 14
-3 12 -12 -2 -11 1 -10 12 3 8 10 17 14 20 9 5 -8 61 -2 116 13 14 4 33 8 42
8 9 1 15 4 13 7 -2 4 5 14 16 23 10 9 19 14 19 10 0 -28 96 128 108 177 2 8 5
112 7 230 3 275 -13 346 -100 433 -71 71 -106 80 -309 82 -100 0 -200 -2 -224
-7z m118 -332 c0 -5 6 -4 13 1 15 12 77 11 96 -1 8 -5 12 -5 9 0 -4 5 7 9 23
10 18 1 26 -3 22 -10 -4 -6 1 -5 10 3 14 11 17 11 18 0 0 -10 2 -10 5 -2 3 7
12 9 20 6 11 -4 12 -9 3 -19 -6 -8 -7 -14 -2 -14 13 0 11 -63 -2 -72 -6 -5 -5
-8 4 -8 9 0 10 -4 4 -12 -8 -11 -10 -33 -3 -40 7 -8 6 -60 -2 -64 -4 -3 -5
-11 -1 -17 12 -20 12 -37 0 -37 -8 0 -8 -3 -2 -8 6 -4 11 -12 12 -19 2 -11
-29 -15 -112 -13 -11 0 -56 0 -100 0 l-80 1 1 67 c0 37 4 73 8 80 4 7 3 12 -1
12 -12 0 -10 63 2 72 6 5 4 8 -4 8 -11 0 -9 4 5 15 19 15 19 15 -1 8 -18 -6
-18 -5 -6 10 9 12 10 17 2 17 -8 0 -9 5 -2 19 11 19 61 25 61 7z"/>
<path d="M4680 4060 c-9 -6 -10 -10 -3 -10 6 0 15 5 18 10 8 12 4 12 -15 0z"/>
<path d="M4716 4061 c-3 -5 1 -14 9 -21 8 -7 12 -17 8 -23 -4 -6 -1 -7 6 -3 9
6 9 12 -3 25 -9 10 -13 21 -9 24 3 4 4 7 0 7 -3 0 -8 -4 -11 -9z"/>
<path d="M1673 3955 c0 -8 4 -12 9 -9 5 3 6 10 3 15 -9 13 -12 11 -12 -6z"/>
<path d="M1875 3769 c-4 -6 -5 -12 -2 -15 2 -3 7 2 10 11 7 17 1 20 -8 4z"/>
<path d="M4250 3576 c0 -2 8 -10 18 -17 15 -13 16 -12 3 4 -13 16 -21 21 -21
13z"/>
<path d="M3875 3541 c-3 -5 -2 -12 3 -15 5 -3 9 1 9 9 0 17 -3 19 -12 6z"/>
<path d="M4270 3526 c0 -2 7 -7 16 -10 8 -3 12 -2 9 4 -6 10 -25 14 -25 6z"/>
<path d="M3153 3485 c0 -8 4 -12 9 -9 5 3 6 10 3 15 -9 13 -12 11 -12 -6z"/>
<path d="M5025 3480 c-3 -6 1 -7 9 -4 18 7 21 14 7 14 -6 0 -13 -4 -16 -10z"/>
<path d="M2006 3462 c-3 -5 1 -9 9 -9 8 0 12 4 9 9 -3 4 -7 8 -9 8 -2 0 -6 -4
-9 -8z"/>
<path d="M4330 3459 c0 -5 5 -7 10 -4 6 3 10 8 10 11 0 2 -4 4 -10 4 -5 0 -10
-5 -10 -11z"/>
<path d="M4970 3460 c0 -5 5 -10 11 -10 5 0 7 5 4 10 -3 6 -8 10 -11 10 -2 0
-4 -4 -4 -10z"/>
<path d="M2631 3447 c-8 -10 -7 -14 2 -14 8 0 14 6 14 14 0 7 -1 13 -2 13 -2
0 -8 -6 -14 -13z"/>
<path d="M3795 3451 c-3 -5 -2 -12 3 -15 5 -3 9 1 9 9 0 17 -3 19 -12 6z"/>
<path d="M2100 3446 c0 -2 8 -10 18 -17 15 -13 16 -12 3 4 -13 16 -21 21 -21
13z"/>
<path d="M3833 3435 c0 -8 4 -12 9 -9 5 3 6 10 3 15 -9 13 -12 11 -12 -6z"/>
<path d="M4420 3446 c0 -2 8 -10 18 -17 15 -13 16 -12 3 4 -13 16 -21 21 -21
13z"/>
<path d="M4913 3425 c0 -8 4 -12 9 -9 5 3 6 10 3 15 -9 13 -12 11 -12 -6z"/>
<path d="M2233 3395 c0 -8 4 -12 9 -9 5 3 6 10 3 15 -9 13 -12 11 -12 -6z"/>
<path d="M2340 3406 c0 -2 8 -10 18 -17 15 -13 16 -12 3 4 -13 16 -21 21 -21
13z"/>
<path d="M2576 3398 c3 -5 10 -6 15 -3 13 9 11 12 -6 12 -8 0 -12 -4 -9 -9z"/>
<path d="M3375 3380 c3 -5 8 -10 11 -10 2 0 4 5 4 10 0 6 -5 10 -11 10 -5 0
-7 -4 -4 -10z"/>
<path d="M4416 3382 c-2 -4 -1 -14 4 -22 7 -11 9 -9 7 8 -1 24 -3 26 -11 14z"/>
<path d="M4490 3379 c0 -5 5 -7 10 -4 6 3 10 8 10 11 0 2 -4 4 -10 4 -5 0 -10
-5 -10 -11z"/>
<path d="M4850 3379 c0 -5 5 -7 10 -4 6 3 10 8 10 11 0 2 -4 4 -10 4 -5 0 -10
-5 -10 -11z"/>
<path d="M4894 3382 c4 -3 14 -7 22 -8 9 -1 13 0 10 4 -4 3 -14 7 -22 8 -9 1
-13 0 -10 -4z"/>
<path d="M3334 3356 c1 -8 5 -18 8 -22 4 -3 5 1 4 10 -1 8 -5 18 -8 22 -4 3
-5 -1 -4 -10z"/>
<path d="M3439 3353 c-13 -16 -12 -17 4 -4 16 13 21 21 13 21 -2 0 -10 -8 -17
-17z"/>
<path d="M3577 3355 c-4 -8 -3 -16 1 -19 4 -3 9 4 9 15 2 23 -3 25 -10 4z"/>
<path d="M4733 3351 c0 -11 5 -18 9 -15 4 3 5 11 1 19 -7 21 -12 19 -10 -4z"/>
<path d="M2296 3342 c-3 -5 1 -9 9 -9 8 0 12 4 9 9 -3 4 -7 8 -9 8 -2 0 -6 -4
-9 -8z"/>
<path d="M2395 3339 c-3 -4 2 -6 10 -5 21 3 28 13 10 13 -9 0 -18 -4 -20 -8z"/>
<path d="M3490 3340 c0 -5 5 -10 11 -10 5 0 7 5 4 10 -3 6 -8 10 -11 10 -2 0
-4 -4 -4 -10z"/>
<path d="M4594 3342 c4 -3 14 -7 22 -8 9 -1 13 0 10 4 -4 3 -14 7 -22 8 -9 1
-13 0 -10 -4z"/>
<path d="M4693 3335 c0 -8 4 -12 9 -9 5 3 6 10 3 15 -9 13 -12 11 -12 -6z"/>
<path d="M3275 3320 c-3 -5 -1 -10 4 -10 6 0 11 5 11 10 0 6 -2 10 -4 10 -3 0
-8 -4 -11 -10z"/>
<path d="M2469 3243 c-13 -16 -12 -17 4 -4 16 13 21 21 13 21 -2 0 -10 -8 -17
-17z"/>
<path d="M2145 3115 c-79 -16 -138 -60 -189 -142 -34 -55 -48 -119 -48 -218 0
-46 -5 -86 -11 -94 -9 -11 -9 -13 0 -8 8 5 11 -25 11 -111 1 -134 3 -157 22
-192 7 -14 13 -26 12 -27 -4 -7 33 -73 40 -73 4 0 8 -5 8 -11 0 -5 -4 -8 -8
-5 -5 3 -9 -1 -9 -9 0 -11 4 -12 13 -4 9 7 18 5 33 -10 11 -11 34 -27 51 -36
17 -9 29 -19 26 -23 -2 -4 21 -7 51 -7 38 0 57 -5 64 -15 5 -9 9 -10 9 -3 0 8
26 12 85 11 71 0 85 -3 86 -17 0 -14 1 -14 7 -1 8 18 48 25 57 10 3 -5 12 -10
18 -10 8 0 8 3 -1 9 -9 5 6 10 40 14 61 6 81 10 88 17 3 3 20 16 39 29 27 19
35 21 43 10 7 -10 8 -8 3 8 -4 14 0 26 13 35 11 7 20 18 21 23 0 6 7 17 14 25
14 16 17 24 17 41 0 5 4 8 9 5 5 -4 7 4 3 16 -3 12 -1 19 4 15 7 -4 11 83 11
235 1 212 -1 248 -18 302 -32 103 -107 181 -199 207 -56 15 -343 18 -415 4z
m146 -330 c7 -5 10 -4 6 2 -7 11 95 9 114 -3 7 -4 10 -3 6 3 -4 7 5 9 26 7 17
-1 36 -3 41 -3 5 -1 4 -7 -3 -14 -7 -10 -7 -17 0 -24 7 -7 8 -17 3 -25 -11
-17 -14 -39 -5 -34 4 3 7 -47 7 -110 l1 -114 -56 -1 c-171 -3 -223 -1 -234 10
-6 6 -7 11 -1 11 5 0 8 17 7 37 -1 21 -2 38 -3 38 -2 0 -2 159 0 168 1 4 3 17
3 30 1 12 5 25 9 28 11 7 63 3 79 -6z"/>
<path d="M2346 2762 c-3 -5 1 -9 9 -9 8 0 12 4 9 9 -3 4 -7 8 -9 8 -2 0 -6 -4
-9 -8z"/>
<path d="M2415 2729 c-4 -6 -5 -12 -2 -15 2 -3 7 2 10 11 7 17 1 20 -8 4z"/>
<path d="M2439 2713 c-13 -16 -12 -17 4 -4 16 13 21 21 13 21 -2 0 -10 -8 -17
-17z"/>
<path d="M2234 2702 c4 -3 14 -7 22 -8 9 -1 13 0 10 4 -4 3 -14 7 -22 8 -9 1
-13 0 -10 -4z"/>
<path d="M2290 2700 c0 -5 5 -10 11 -10 5 0 7 5 4 10 -3 6 -8 10 -11 10 -2 0
-4 -4 -4 -10z"/>
<path d="M2390 2661 c0 -6 4 -13 10 -16 6 -3 7 1 4 9 -7 18 -14 21 -14 7z"/>
<path d="M2216 2622 c-3 -5 1 -9 9 -9 8 0 12 4 9 9 -3 4 -7 8 -9 8 -2 0 -6 -4
-9 -8z"/>
<path d="M3249 3097 c-77 -37 -132 -100 -160 -185 -19 -56 -22 -90 -23 -217
-1 -82 -5 -155 -9 -162 -4 -6 -3 -14 1 -17 5 -3 9 -27 9 -53 1 -27 7 -68 14
-93 7 -25 12 -48 11 -52 -1 -5 2 -8 8 -8 5 0 10 -6 10 -14 0 -7 7 -19 15 -26
9 -7 13 -23 11 -36 -3 -14 -1 -22 5 -19 5 4 6 12 2 18 -5 10 31 -16 47 -33 18
-21 89 -51 133 -58 29 -4 124 -7 212 -6 151 1 164 3 215 27 29 14 59 23 64 20
6 -3 8 -3 4 2 -4 4 8 26 28 47 19 21 42 56 52 76 9 20 21 40 27 44 5 4 8 23 7
42 -2 22 2 36 9 36 8 0 8 4 2 13 -11 14 -10 138 1 155 4 7 4 12 -1 12 -12 0
-10 54 2 62 6 5 5 8 -4 8 -11 0 -11 3 -1 15 7 8 8 15 3 15 -5 0 -8 34 -8 76 1
41 -3 78 -7 80 -5 3 -6 9 -3 14 3 4 -2 21 -10 36 -8 16 -15 33 -15 37 0 11
-49 77 -75 101 -11 10 -45 30 -75 44 -52 24 -62 25 -249 26 -192 1 -195 1
-252 -27z m124 -331 c-3 -5 -1 -6 5 -2 6 4 9 12 6 19 -5 14 84 15 106 2 8 -5
11 -4 7 1 -3 5 24 9 64 9 38 0 69 -4 69 -8 0 -5 4 -6 9 -3 5 3 9 -5 9 -19 0
-16 -5 -22 -12 -18 -8 5 -8 3 0 -8 15 -19 15 -110 1 -128 -8 -10 -8 -13 -1 -8
8 4 11 -9 11 -43 -1 -26 -5 -46 -10 -43 -5 3 -3 -4 4 -15 7 -12 10 -24 7 -27
-3 -4 -60 -7 -125 -7 -181 0 -177 0 -164 15 6 8 8 17 5 20 -10 10 -11 87 -1
87 4 0 5 6 1 12 -12 19 -12 48 -1 48 6 0 6 5 0 13 -4 6 -8 36 -7 65 3 78 3 79
13 62 6 -8 7 -18 4 -24z"/>
<path d="M3433 2751 c0 -11 5 -18 9 -15 4 3 5 11 1 19 -7 21 -12 19 -10 -4z"/>
<path d="M3573 2665 c0 -8 4 -12 9 -9 5 3 6 10 3 15 -9 13 -12 11 -12 -6z"/>
<path d="M3615 2660 c-3 -5 -1 -10 4 -10 6 0 11 5 11 10 0 6 -2 10 -4 10 -3 0
-8 -4 -11 -10z"/>
<path d="M2735 2240 c3 -5 8 -10 11 -10 2 0 4 5 4 10 0 6 -5 10 -11 10 -5 0
-7 -4 -4 -10z"/>
<path d="M3910 2246 c0 -2 7 -7 16 -10 8 -3 12 -2 9 4 -6 10 -25 14 -25 6z"/>
<path d="M1975 2181 c-3 -5 -2 -12 3 -15 5 -3 9 1 9 9 0 17 -3 19 -12 6z"/>
<path d="M2010 2179 c0 -5 5 -7 10 -4 6 3 10 8 10 11 0 2 -4 4 -10 4 -5 0 -10
-5 -10 -11z"/>
<path d="M3819 2168 c-5 -18 -6 -38 -1 -34 7 8 12 36 6 36 -2 0 -4 -1 -5 -2z"/>
<path d="M2600 2140 c-9 -6 -10 -10 -3 -10 6 0 15 5 18 10 8 12 4 12 -15 0z"/>
<path d="M2650 2139 c0 -5 5 -7 10 -4 6 3 10 8 10 11 0 2 -4 4 -10 4 -5 0 -10
-5 -10 -11z"/>
<path d="M2555 2129 c-4 -6 -5 -12 -2 -15 2 -3 7 2 10 11 7 17 1 20 -8 4z"/>
<path d="M2096 2122 c-3 -5 1 -9 9 -9 8 0 12 4 9 9 -3 4 -7 8 -9 8 -2 0 -6 -4
-9 -8z"/>
<path d="M2276 2122 c-2 -4 4 -8 14 -8 10 0 16 4 14 8 -3 4 -9 8 -14 8 -5 0
-11 -4 -14 -8z"/>
<path d="M2516 2113 c-6 -14 -5 -15 5 -6 7 7 10 15 7 18 -3 3 -9 -2 -12 -12z"/>
<path d="M2615 2111 c-3 -5 -2 -12 3 -15 5 -3 9 1 9 9 0 17 -3 19 -12 6z"/>
<path d="M2050 2099 c0 -5 5 -7 10 -4 6 3 10 8 10 11 0 2 -4 4 -10 4 -5 0 -10
-5 -10 -11z"/>
<path d="M3680 2100 c-9 -6 -10 -10 -3 -10 6 0 15 5 18 10 8 12 4 12 -15 0z"/>
<path d="M3495 2080 c3 -5 8 -10 11 -10 2 0 4 5 4 10 0 6 -5 10 -11 10 -5 0
-7 -4 -4 -10z"/>
<path d="M3606 2078 c3 -5 10 -6 15 -3 13 9 11 12 -6 12 -8 0 -12 -4 -9 -9z"/>
<path d="M2233 2065 c0 -8 4 -12 9 -9 5 3 6 10 3 15 -9 13 -12 11 -12 -6z"/>
<path d="M2576 2058 c3 -4 11 -5 19 -1 21 7 19 12 -4 10 -11 0 -18 -5 -15 -9z"/>
<path d="M3256 2058 c3 -4 11 -5 19 -1 21 7 19 12 -4 10 -11 0 -18 -5 -15 -9z"/>
<path d="M2193 2045 c0 -8 4 -12 9 -9 5 3 6 10 3 15 -9 13 -12 11 -12 -6z"/>
<path d="M2670 2056 c0 -2 8 -10 18 -17 15 -13 16 -12 3 4 -13 16 -21 21 -21
13z"/>
<path d="M3433 2035 c0 -8 4 -12 9 -9 5 3 6 10 3 15 -9 13 -12 11 -12 -6z"/>
<path d="M3530 2040 c0 -5 5 -10 11 -10 5 0 7 5 4 10 -3 6 -8 10 -11 10 -2 0
-4 -4 -4 -10z"/>
<path d="M2211 2007 c-13 -21 -12 -21 5 -5 10 10 16 20 13 22 -3 3 -11 -5 -18
-17z"/>
<path d="M3396 2022 c-3 -5 1 -9 9 -9 8 0 12 4 9 9 -3 4 -7 8 -9 8 -2 0 -6 -4
-9 -8z"/>
<path d="M5549 2923 c-13 -16 -12 -17 4 -4 9 7 17 15 17 17 0 8 -8 3 -21 -13z"/>
<path d="M5308 2903 c7 -3 16 -2 19 1 4 3 -2 6 -13 5 -11 0 -14 -3 -6 -6z"/>
<path d="M5750 2904 c0 -20 27 -37 36 -23 4 7 3 9 -4 5 -6 -3 -15 2 -21 11 -6
10 -11 13 -11 7z"/>
<path d="M5273 2875 c0 -8 4 -12 9 -9 5 3 6 10 3 15 -9 13 -12 11 -12 -6z"/>
<path d="M5705 2880 c-3 -6 1 -7 9 -4 18 7 21 14 7 14 -6 0 -13 -4 -16 -10z"/>
<path d="M5615 2871 c-3 -5 -2 -12 3 -15 5 -3 9 1 9 9 0 17 -3 19 -12 6z"/>
<path d="M5450 2859 c0 -5 5 -7 10 -4 6 3 10 8 10 11 0 2 -4 4 -10 4 -5 0 -10
-5 -10 -11z"/>
<path d="M5490 2859 c0 -5 5 -7 10 -4 6 3 10 8 10 11 0 2 -4 4 -10 4 -5 0 -10
-5 -10 -11z"/>
<path d="M5775 2849 c-4 -6 -5 -12 -2 -15 2 -3 7 2 10 11 7 17 1 20 -8 4z"/>
<path d="M5233 2835 c0 -8 4 -12 9 -9 5 3 6 10 3 15 -9 13 -12 11 -12 -6z"/>
<path d="M5536 2842 c-3 -5 1 -9 9 -9 8 0 12 4 9 9 -3 4 -7 8 -9 8 -2 0 -6 -4
-9 -8z"/>
<path d="M5370 2825 c0 -7 30 -13 34 -7 3 4 -4 9 -15 9 -10 1 -19 0 -19 -2z"/>
<path d="M5870 2826 c0 -2 7 -7 16 -10 8 -3 12 -2 9 4 -6 10 -25 14 -25 6z"/>
<path d="M5824 2802 c4 -3 14 -7 22 -8 9 -1 13 0 10 4 -4 3 -14 7 -22 8 -9 1
-13 0 -10 -4z"/>
<path d="M5200 2780 c-12 -7 -10 -9 7 -7 12 0 19 5 17 9 -6 10 -6 10 -24 -2z"/>
<path d="M5773 2775 c0 -8 4 -12 9 -9 5 3 6 10 3 15 -9 13 -12 11 -12 -6z"/>
<path d="M5896 2742 c-3 -5 1 -9 9 -9 8 0 12 4 9 9 -3 4 -7 8 -9 8 -2 0 -6 -4
-9 -8z"/>
<path d="M5987 2719 c7 -7 15 -10 18 -7 3 3 -2 9 -12 12 -14 6 -15 5 -6 -5z"/>
<path d="M5509 2710 c-86 -15 -127 -88 -124 -220 1 -41 -2 -83 -7 -92 -4 -9
-5 -19 0 -21 8 -6 8 -89 -1 -104 -4 -6 -3 -13 1 -17 3 -4 7 -50 8 -103 0 -78
4 -97 17 -105 9 -5 17 -14 17 -19 0 -6 -5 -7 -12 -3 -7 4 -8 3 -4 -4 4 -6 13
-9 21 -5 9 3 15 -1 15 -11 0 -9 6 -16 14 -16 8 0 17 -8 21 -19 3 -10 20 -32
38 -48 17 -16 43 -43 57 -59 34 -39 63 -54 96 -48 25 5 26 3 13 -13 -13 -17
-13 -17 7 0 11 9 23 15 25 13 5 -6 84 53 84 62 0 4 2 6 5 5 10 -3 18 114 9
152 -2 11 -8 25 -14 31 -5 6 -35 41 -65 78 l-55 67 -1 79 c0 51 3 77 9 73 6
-4 7 -1 1 8 -4 8 -9 66 -10 129 -1 74 -6 116 -13 118 -6 2 -11 10 -11 17 0 15
-64 71 -89 77 -9 2 -32 1 -52 -2z"/>
<path d="M5013 2685 c0 -8 4 -12 9 -9 5 3 6 10 3 15 -9 13 -12 11 -12 -6z"/>
<path d="M5110 2680 c0 -5 5 -10 10 -10 6 0 10 5 10 10 0 6 -4 10 -10 10 -5 0
-10 -4 -10 -10z"/>
<path d="M5054 2656 c1 -8 5 -18 8 -22 4 -3 5 1 4 10 -1 8 -5 18 -8 22 -4 3
-5 -1 -4 -10z"/>
<path d="M5990 2661 c0 -6 4 -13 10 -16 6 -3 7 1 4 9 -7 18 -14 21 -14 7z"/>
<path d="M6055 2620 c3 -5 8 -10 11 -10 2 0 4 5 4 10 0 6 -5 10 -11 10 -5 0
-7 -4 -4 -10z"/>
<path d="M6106 2522 c-3 -5 1 -9 9 -9 8 0 12 4 9 9 -3 4 -7 8 -9 8 -2 0 -6 -4
-9 -8z"/>
<path d="M4913 2395 c0 -8 4 -12 9 -9 5 3 6 10 3 15 -9 13 -12 11 -12 -6z"/>
<path d="M5435 1960 c3 -5 8 -10 11 -10 2 0 4 5 4 10 0 6 -5 10 -11 10 -5 0
-7 -4 -4 -10z"/>
<path d="M5493 1865 c0 -8 4 -12 9 -9 5 3 6 10 3 15 -9 13 -12 11 -12 -6z"/>
<path d="M5570 1779 c0 -5 5 -7 10 -4 6 3 10 8 10 11 0 2 -4 4 -10 4 -5 0 -10
-5 -10 -11z"/>
<path d="M5636 1767 c3 -10 9 -15 12 -12 3 3 0 11 -7 18 -10 9 -11 8 -5 -6z"/>
<path d="M5710 1766 c0 -2 7 -7 16 -10 8 -3 12 -2 9 4 -6 10 -25 14 -25 6z"/>
<path d="M5676 1722 c-3 -5 1 -9 9 -9 8 0 12 4 9 9 -3 4 -7 8 -9 8 -2 0 -6 -4
-9 -8z"/>
<path d="M1419 1628 c-5 -18 -6 -38 -1 -34 7 8 12 36 6 36 -2 0 -4 -1 -5 -2z"/>
<path d="M1455 1580 c3 -5 8 -10 11 -10 2 0 4 5 4 10 0 6 -5 10 -11 10 -5 0
-7 -4 -4 -10z"/>
<path d="M6479 1553 c-13 -16 -12 -17 4 -4 16 13 21 21 13 21 -2 0 -10 -8 -17
-17z"/>
<path d="M2146 1462 c-3 -5 1 -9 9 -9 8 0 15 4 15 9 0 4 -4 8 -9 8 -6 0 -12
-4 -15 -8z"/>
<path d="M4690 1465 c0 -5 5 -17 10 -25 5 -8 10 -10 10 -5 0 6 -5 17 -10 25
-5 8 -10 11 -10 5z"/>
<path d="M6373 1449 c-2 -23 3 -25 10 -4 4 8 3 16 -1 19 -4 3 -9 -4 -9 -15z"/>
<path d="M1595 1449 c-4 -6 -5 -12 -2 -15 2 -3 7 2 10 11 7 17 1 20 -8 4z"/>
<path d="M2415 1449 c-4 -6 -5 -12 -2 -15 2 -3 7 2 10 11 7 17 1 20 -8 4z"/>
<path d="M3416 1447 c3 -10 9 -15 12 -12 3 3 0 11 -7 18 -10 9 -11 8 -5 -6z"/>
<path d="M1916 1438 c3 -5 10 -6 15 -3 13 9 11 12 -6 12 -8 0 -12 -4 -9 -9z"/>
<path d="M2276 1438 c3 -5 10 -6 15 -3 13 9 11 12 -6 12 -8 0 -12 -4 -9 -9z"/>
<path d="M2316 1442 c-3 -5 1 -9 9 -9 8 0 12 4 9 9 -3 4 -7 8 -9 8 -2 0 -6 -4
-9 -8z"/>
<path d="M2580 1445 c0 -2 6 -8 13 -14 10 -8 14 -7 14 2 0 8 -6 14 -14 14 -7
0 -13 -1 -13 -2z"/>
<path d="M3029 1437 c6 -8 7 -18 3 -22 -4 -5 -1 -5 6 -1 10 6 10 11 1 22 -6 8
-14 14 -16 14 -3 0 0 -6 6 -13z"/>
<path d="M3540 1445 c0 -2 6 -8 13 -14 10 -8 14 -7 14 2 0 8 -6 14 -14 14 -7
0 -13 -1 -13 -2z"/>
<path d="M3955 1441 c-3 -5 -2 -12 3 -15 5 -3 9 1 9 9 0 17 -3 19 -12 6z"/>
<path d="M4090 1439 c0 -5 5 -7 10 -4 6 3 10 8 10 11 0 2 -4 4 -10 4 -5 0 -10
-5 -10 -11z"/>
<path d="M4275 1441 c-3 -5 -2 -12 3 -15 5 -3 9 1 9 9 0 17 -3 19 -12 6z"/>
<path d="M4410 1439 c0 -5 5 -7 10 -4 6 3 10 8 10 11 0 2 -4 4 -10 4 -5 0 -10
-5 -10 -11z"/>
<path d="M4534 1435 c3 -23 12 -26 13 -5 1 11 -2 20 -7 20 -4 0 -7 -7 -6 -15z"/>
<path d="M4613 1435 c0 -8 4 -12 9 -9 4 3 8 9 8 15 0 5 -4 9 -8 9 -5 0 -9 -7
-9 -15z"/>
<path d="M4650 1441 c0 -6 4 -12 8 -15 5 -3 9 1 9 9 0 8 -4 15 -9 15 -4 0 -8
-4 -8 -9z"/>
<path d="M4153 1425 c0 -8 4 -12 9 -9 5 3 6 10 3 15 -9 13 -12 11 -12 -6z"/>
<path d="M1900 1426 c0 -2 8 -10 18 -17 15 -13 16 -12 3 4 -13 16 -21 21 -21
13z"/>
<path d="M4690 1416 c0 -2 8 -10 18 -17 15 -13 16 -12 3 4 -13 16 -21 21 -21
13z"/>
<path d="M2079 1393 c-13 -16 -12 -17 4 -4 16 13 21 21 13 21 -2 0 -10 -8 -17
-17z"/>
<path d="M2734 1402 c4 -3 14 -7 22 -8 9 -1 13 0 10 4 -4 3 -14 7 -22 8 -9 1
-13 0 -10 -4z"/>
<path d="M2836 1402 c-3 -5 1 -9 9 -9 8 0 12 4 9 9 -3 4 -7 8 -9 8 -2 0 -6 -4
-9 -8z"/>
<path d="M3694 1402 c4 -3 14 -7 22 -8 9 -1 13 0 10 4 -4 3 -14 7 -22 8 -9 1
-13 0 -10 -4z"/>
<path d="M3796 1402 c-3 -5 1 -9 9 -9 8 0 12 4 9 9 -3 4 -7 8 -9 8 -2 0 -6 -4
-9 -8z"/>
<path d="M2613 1385 c0 -8 4 -12 9 -9 5 3 6 10 3 15 -9 13 -12 11 -12 -6z"/>
<path d="M2975 1391 c-3 -5 -2 -12 3 -15 5 -3 9 1 9 9 0 17 -3 19 -12 6z"/>
<path d="M3453 1385 c0 -8 4 -12 9 -9 5 3 6 10 3 15 -9 13 -12 11 -12 -6z"/>
<path d="M3573 1385 c0 -8 4 -12 9 -9 5 3 6 10 3 15 -9 13 -12 11 -12 -6z"/>
<path d="M4015 1391 c-3 -5 -2 -12 3 -15 5 -3 9 1 9 9 0 17 -3 19 -12 6z"/>
<path d="M4335 1391 c-3 -5 -2 -12 3 -15 5 -3 9 1 9 9 0 17 -3 19 -12 6z"/>
<path d="M1735 1380 c-3 -5 -1 -10 4 -10 6 0 11 5 11 10 0 6 -2 10 -4 10 -3 0
-8 -4 -11 -10z"/>
<path d="M1815 1380 c-2 -3 9 -6 25 -6 17 0 27 2 25 5 -8 7 -45 9 -50 1z"/>
<path d="M1894 1382 c4 -3 14 -7 22 -8 9 -1 13 0 10 4 -4 3 -14 7 -22 8 -9 1
-13 0 -10 -4z"/>
<path d="M2234 1382 c4 -3 14 -7 22 -8 9 -1 13 0 10 4 -4 3 -14 7 -22 8 -9 1
-13 0 -10 -4z"/>
<path d="M2296 1378 c3 -5 10 -6 15 -3 13 9 11 12 -6 12 -8 0 -12 -4 -9 -9z"/>
<path d="M2415 1380 c-3 -5 -1 -10 4 -10 6 0 11 5 11 10 0 6 -2 10 -4 10 -3 0
-8 -4 -11 -10z"/>
<path d="M2510 1385 c0 -7 30 -13 34 -7 3 4 -4 9 -15 9 -10 1 -19 0 -19 -2z"/>
<path d="M3415 1380 c-3 -5 -1 -10 4 -10 6 0 11 5 11 10 0 6 -2 10 -4 10 -3 0
-8 -4 -11 -10z"/>
<path d="M3486 1382 c-3 -5 1 -9 9 -9 8 0 12 4 9 9 -3 4 -7 8 -9 8 -2 0 -6 -4
-9 -8z"/>
<path d="M3870 1386 c0 -2 7 -7 16 -10 8 -3 12 -2 9 4 -6 10 -25 14 -25 6z"/>
<path d="M3936 1378 c3 -4 11 -5 19 -1 21 7 19 12 -4 10 -11 0 -18 -5 -15 -9z"/>
<path d="M4190 1386 c0 -2 7 -7 16 -10 8 -3 12 -2 9 4 -6 10 -25 14 -25 6z"/>
<path d="M4256 1378 c3 -4 11 -5 19 -1 21 7 19 12 -4 10 -11 0 -18 -5 -15 -9z"/>
<path d="M4575 1380 c3 -5 8 -10 11 -10 2 0 4 5 4 10 0 6 -5 10 -11 10 -5 0
-7 -4 -4 -10z"/>
<path d="M3033 1365 c0 -8 4 -12 9 -9 5 3 6 10 3 15 -9 13 -12 11 -12 -6z"/>
<path d="M1635 1360 c-3 -5 -1 -10 4 -10 6 0 11 5 11 10 0 6 -2 10 -4 10 -3 0
-8 -4 -11 -10z"/>
<path d="M1990 1366 c0 -2 7 -7 16 -10 8 -3 12 -2 9 4 -6 10 -25 14 -25 6z"/>
<path d="M3840 1360 c-9 -6 -10 -10 -3 -10 6 0 15 5 18 10 8 12 4 12 -15 0z"/>
<path d="M4710 1361 c0 -6 4 -13 10 -16 6 -3 7 1 4 9 -7 18 -14 21 -14 7z"/>
<path d="M1833 1325 c0 -8 4 -15 9 -15 4 0 8 4 8 9 0 6 -4 12 -8 15 -5 3 -9
-1 -9 -9z"/>
<path d="M2320 1320 c-9 -6 -10 -10 -3 -10 6 0 15 5 18 10 8 12 4 12 -15 0z"/>
<path d="M4567 1319 c7 -7 15 -10 18 -7 3 3 -2 9 -12 12 -14 6 -15 5 -6 -5z"/>
<path d="M4760 1320 c-9 -6 -10 -10 -3 -10 6 0 15 5 18 10 8 12 4 12 -15 0z"/>
<path d="M6233 1275 c0 -8 4 -12 9 -9 4 3 8 9 8 15 0 5 -4 9 -8 9 -5 0 -9 -7
-9 -15z"/>
<path d="M6233 1205 c0 -8 4 -12 9 -9 5 3 6 10 3 15 -9 13 -12 11 -12 -6z"/>
<path d="M4920 1180 c-9 -6 -10 -10 -3 -10 6 0 15 5 18 10 8 12 4 12 -15 0z"/>
<path d="M6246 1162 c-3 -5 1 -9 9 -9 8 0 12 4 9 9 -3 4 -7 8 -9 8 -2 0 -6 -4
-9 -8z"/>
<path d="M6070 1136 c0 -2 8 -10 18 -17 15 -13 16 -12 3 4 -13 16 -21 21 -21
13z"/>
<path d="M4959 1113 c-13 -16 -12 -17 4 -4 9 7 17 15 17 17 0 8 -8 3 -21 -13z"/>
<path d="M6110 1126 c0 -2 7 -7 16 -10 8 -3 12 -2 9 4 -6 10 -25 14 -25 6z"/>
<path d="M6050 1099 c0 -5 5 -7 10 -4 6 3 10 8 10 11 0 2 -4 4 -10 4 -5 0 -10
-5 -10 -11z"/>
<path d="M6075 1081 c-3 -5 -2 -12 3 -15 5 -3 9 1 9 9 0 17 -3 19 -12 6z"/>
<path d="M5015 1060 c3 -5 8 -10 11 -10 2 0 4 5 4 10 0 6 -5 10 -11 10 -5 0
-7 -4 -4 -10z"/>
<path d="M5130 1060 c0 -5 5 -10 11 -10 5 0 7 5 4 10 -3 6 -8 10 -11 10 -2 0
-4 -4 -4 -10z"/>
<path d="M5896 1047 c3 -10 9 -15 12 -12 3 3 0 11 -7 18 -10 9 -11 8 -5 -6z"/>
<path d="M5054 1036 c1 -8 5 -18 8 -22 4 -3 5 1 4 10 -1 8 -5 18 -8 22 -4 3
-5 -1 -4 -10z"/>
<path d="M5960 1040 c-9 -6 -10 -10 -3 -10 6 0 15 5 18 10 8 12 4 12 -15 0z"/>
<path d="M6013 1015 c0 -8 4 -12 9 -9 5 3 6 10 3 15 -9 13 -12 11 -12 -6z"/>
<path d="M5156 1007 c3 -10 9 -15 12 -12 3 3 0 11 -7 18 -10 9 -11 8 -5 -6z"/>
<path d="M5195 1009 c-4 -6 -5 -12 -2 -15 2 -3 7 2 10 11 7 17 1 20 -8 4z"/>
<path d="M5794 1009 c-3 -6 -2 -15 3 -20 5 -5 9 -1 9 11 0 23 -2 24 -12 9z"/>
<path d="M5873 1005 c0 -8 4 -15 9 -15 4 0 8 4 8 9 0 6 -4 12 -8 15 -5 3 -9
-1 -9 -9z"/>
<path d="M5760 1000 c-9 -6 -10 -10 -3 -10 6 0 15 5 18 10 8 12 4 12 -15 0z"/>
<path d="M5907 999 c7 -7 15 -10 18 -7 3 3 -2 9 -12 12 -14 6 -15 5 -6 -5z"/>
<path d="M5535 969 c-4 -6 -5 -12 -2 -15 2 -3 7 2 10 11 7 17 1 20 -8 4z"/>
<path d="M5634 955 c0 -13 3 -22 7 -19 8 4 6 30 -2 38 -3 3 -5 -5 -5 -19z"/>
<path d="M5870 961 c0 -6 4 -13 10 -16 6 -3 7 1 4 9 -7 18 -14 21 -14 7z"/>
<path d="M5996 958 c3 -5 10 -6 15 -3 13 9 11 12 -6 12 -8 0 -12 -4 -9 -9z"/>
<path d="M5913 945 c0 -8 4 -12 9 -9 5 3 6 10 3 15 -9 13 -12 11 -12 -6z"/>
<path d="M5206 938 c3 -5 10 -6 15 -3 13 9 11 12 -6 12 -8 0 -12 -4 -9 -9z"/>
<path d="M5473 935 c0 -8 4 -12 9 -9 5 3 6 10 3 15 -9 13 -12 11 -12 -6z"/>
<path d="M5816 942 c-3 -5 1 -9 9 -9 8 0 12 4 9 9 -3 4 -7 8 -9 8 -2 0 -6 -4
-9 -8z"/>
<path d="M5715 929 c-4 -6 -5 -12 -2 -15 2 -3 7 2 10 11 7 17 1 20 -8 4z"/>
<path d="M5246 922 c-3 -5 1 -9 9 -9 8 0 12 4 9 9 -3 4 -7 8 -9 8 -2 0 -6 -4
-9 -8z"/>
<path d="M5373 905 c0 -8 4 -12 9 -9 5 3 6 10 3 15 -9 13 -12 11 -12 -6z"/>
<path d="M5410 899 c0 -5 5 -7 10 -4 6 3 10 8 10 11 0 2 -4 4 -10 4 -5 0 -10
-5 -10 -11z"/>
<path d="M5491 847 c2 -1 13 -9 24 -17 19 -14 19 -14 6 3 -7 9 -18 17 -24 17
-6 0 -8 -1 -6 -3z"/>
</g>
</svg>
